<?xml version="1.0" encoding="utf-8"?>
<!-- Generator: Adobe Illustrator 24.1.1, SVG Export Plug-In . SVG Version: 6.00 Build 0)  -->
<svg version="1.1"
	 id="svg2985" xmlns:cc="http://creativecommons.org/ns#" xmlns:dc="http://purl.org/dc/elements/1.1/" xmlns:rdf="http://www.w3.org/1999/02/22-rdf-syntax-ns#" xmlns:svg="http://www.w3.org/2000/svg"
	 xmlns="http://www.w3.org/2000/svg" xmlns:xlink="http://www.w3.org/1999/xlink" x="0px" y="0px" viewBox="0 0 381.9 180.6"
	 style="enable-background:new 0 0 381.9 180.6;" xml:space="preserve">
<style type="text/css">
	.st0{fill:#003B57;}
	.st1{fill:#0F80CC;}
	.st2{fill:url(#gradient-background_1_);}
</style>
<path id="SQLite" class="st0" d="M147.5,89.2c-4.8,0-8.7,1.4-11.8,4.3c-3,2.9-4.5,6.6-4.5,11.2c0,2.4,0.4,4.5,1.1,6.5
	c0.7,2,1.9,3.8,3.5,5.5c1.6,1.7,4.7,3.9,9.3,6.8c5.7,3.5,9.5,6.3,11.3,8.5c1.8,2.2,2.7,4.5,2.7,6.9c0,3.2-1.1,5.8-3.3,7.8
	c-2.2,1.9-5.1,2.9-8.8,2.9c-3.8,0-7.2-1.4-10-4c-2.9-2.7-4.3-6.2-4.3-10.7H131v16.2h1.8c0.5-1.5,1.3-2.3,2.3-2.3
	c0.5,0,1.6,0.3,3.3,0.9c4.2,1.5,7.7,2.2,10.4,2.2c4.7,0,8.7-1.6,12-5c3.3-3.3,5-7.3,5-12c0-3.6-1.1-6.9-3.3-9.7
	c-2.2-2.8-6.4-6.1-12.7-9.9c-5.4-3.3-9-5.9-10.6-8c-1.6-2.1-2.5-4.4-2.5-6.9c0-2.7,1-4.9,3-6.5c2-1.6,4.6-2.4,7.8-2.4
	c3.6,0,6.7,1.1,9.1,3.3c2.4,2.2,3.8,5.2,4.2,9.1h1.8v-14h-1.7c-0.2,0.7-0.4,1.2-0.6,1.4c-0.2,0.2-0.5,0.3-1,0.3
	c-0.6,0-1.6-0.2-3.1-0.7C153.1,89.8,150.2,89.2,147.5,89.2z M205.8,89.2c-5.9,0-11.2,1.4-16,4.2c-4.8,2.8-8.6,6.6-11.5,11.5
	c-2.8,4.9-4.2,10.1-4.2,15.6c0,7.4,2.4,14.1,7.3,19.9c4.9,5.8,10.8,9.4,17.6,10.8c1.6,0.8,3.8,2.9,6.7,6.3c3.3,3.8,6.1,6.6,8.4,8.3
	c2.3,1.6,4.8,2.9,7.4,3.7c2.6,0.8,5.4,1.2,8.5,1.2c3.7,0,7-0.6,9.9-2l-0.7-1.6c-1.7,0.6-3.5,0.9-5.4,0.9c-2.6,0-5.2-0.9-7.8-2.6
	c-2.6-1.7-5.9-5-9.8-9.8c-1.8-2.3-3.1-3.8-3.8-4.3c7.5-1.5,13.6-5.1,18.4-10.9c4.8-5.8,7.2-12.4,7.2-19.8c0-8.8-3.1-16.2-9.3-22.2
	C222.5,92.3,214.8,89.2,205.8,89.2z M242.1,89.2l0.1,1.9c3.9,0,6.1,1.2,6.6,3.5c0.2,0.8,0.3,2.4,0.3,4.6l0,42.2c0,3.1-0.5,5.2-1.3,6
	c-0.9,0.9-2.3,1.4-4.4,1.6l-0.1,1.9h39l1-9.6h-1.8c-0.5,2.6-1.7,4.5-3.5,5.5c-1.9,1.1-5.2,1.6-9.9,1.6h-3.7c-4.3,0-6.8-1.5-7.4-4.7
	c-0.1-0.6-0.2-1.3-0.2-2l0.2-42.6c0-3.1,0.4-5.3,1.2-6.3c0.8-1,2.3-1.6,4.5-1.8l-0.1-1.9L242.1,89.2L242.1,89.2z M206.4,91.5
	c6.6,0,12,2.6,16.2,7.9c4.2,5.3,6.3,12.5,6.3,21.6c0,8.7-2.1,15.6-6.3,20.8c-4.2,5.2-9.8,7.8-16.8,7.8c-6.7,0-12.1-2.7-16.3-8.1
	c-4.2-5.4-6.2-12.4-6.2-21c0-8.8,2.1-15.9,6.3-21.2C193.7,94.2,199.3,91.5,206.4,91.5z M296.1,100.6c-1,0-1.7,0.3-2.2,1
	c-0.6,0.6-0.7,1.4-0.5,2.4c0.2,0.9,0.7,1.7,1.5,2.4c0.8,0.7,1.7,1,2.7,1c0.9,0,1.6-0.4,2.1-1c0.5-0.7,0.7-1.5,0.5-2.4
	c-0.2-0.9-0.7-1.7-1.5-2.4C297.8,100.9,297,100.6,296.1,100.6z M321.8,107.1c-1.6,6.2-5.1,9.6-10.5,10.1l0.1,1.8h6.3l-0.1,21.1
	c0,3.6,0.1,6,0.4,7.2c0.6,2.9,2.5,4.4,5.7,4.4c4.6,0,9.5-2.8,14.5-8.4l-1.5-1.3c-3.7,3.7-6.9,5.6-9.7,5.6c-1.7,0-2.8-1-3.2-3
	c-0.1-0.5-0.2-1-0.2-1.7l0.1-23.8h9.6l-0.1-2.8h-9.5v-9.1L321.8,107.1L321.8,107.1z M358.9,115c-5.4,0-9.7,2.6-13.1,7.8
	c-3.4,5.2-4.4,10.9-3.1,17.2c0.8,3.7,2.3,6.6,4.7,8.6c2.4,2,5.4,3,9,3c3.4,0,8-0.9,10-2.6c2-1.7,3.8-4.5,5.5-8.3l-1.3-1.4
	c-2.7,4.9-8.1,7.4-12.2,7.4c-5.6,0-9-3.1-10.3-9.2c-0.2-0.8-0.3-1.6-0.4-2.5c6.7-1.1,11.7-2.9,15.1-5.6c3.4-2.7,6.8-5.6,6.2-8.6
	c-0.4-1.8-1.3-3.2-2.8-4.3C364.8,115.6,361,115,358.9,115z M300.2,115.2l-11.6,2.7v2.1l4-0.5c1.9,0,3.1,0.9,3.4,2.6
	c0.1,0.6,0.2,1.4,0.2,2.4l-0.1,18.9c0,2.6-0.3,4.1-0.9,4.6c-0.6,0.5-2.1,0.7-4.7,0.7l-0.1,1.8h18.3l0-1.8c-2.5,0-4.2-0.2-4.9-0.6
	c-0.7-0.4-1.2-1.1-1.4-2.2c-0.2-0.8-0.2-2.1-0.3-4l0.1-26.7L300.2,115.2L300.2,115.2z M355.9,118.7c1.1,0,2.2,0.4,3.3,1.3
	c1.1,0.8,1.7,1.8,1.9,2.8c1,5-3.4,8.5-13.4,10.4c-0.3-3.7,0.3-7,2-10C351.3,120.2,353.4,118.7,355.9,118.7z"/>
<path id="solid-background" class="st1" d="M121.6,17H22.1C15.5,17,10,22.5,10,29.2v109.7c0,6.7,5.5,12.1,12.1,12.1h65.5
	C86.9,118.4,98.1,55.1,121.6,17z"/>
<linearGradient id="gradient-background_1_" gradientUnits="userSpaceOnUse" x1="-226.5933" y1="416.6237" x2="-217.7196" y2="416.6237" gradientTransform="matrix(-5.025000e-07 11.4863 11.4863 5.025000e-07 -4719.7041 2625.5579)">
	<stop  offset="0" style="stop-color:#97D9F6"/>
	<stop  offset="0.9202" style="stop-color:#0F80CC"/>
	<stop  offset="1" style="stop-color:#0F80CC"/>
</linearGradient>
<path id="gradient-background" class="st2" d="M118,20.6H22.1c-4.7,0-8.6,3.9-8.6,8.6v101.7c21.7-8.3,54.3-15.5,76.8-15.2
	C94.9,92,108.2,45.6,118,20.6z"/>
<path id="feather" class="st0" d="M144.8,13.4c-6.8-6.1-15.1-3.6-23.2,3.6c-1.2,1.1-2.4,2.3-3.6,3.5c-13.9,14.8-26.9,42.2-30.9,63.1
	c1.6,3.2,2.8,7.2,3.6,10.3c0.2,0.8,0.4,1.5,0.5,2.2c0.4,1.5,0.5,2.5,0.5,2.5s-0.1-0.5-0.6-2c-0.1-0.3-0.2-0.6-0.3-1
	c-0.1-0.2-0.1-0.3-0.2-0.5c-0.9-2.1-3.4-6.6-4.5-8.5c-0.9,2.8-1.8,5.4-2.5,7.8c3.2,5.8,5.1,15.9,5.1,15.9s-0.2-0.6-1-2.9
	c-0.7-2-4.3-8.2-5.1-9.7c-1.4,5.3-2,8.9-1.5,9.8c1,1.7,2,4.6,2.8,7.8c1.9,7.3,3.2,16.1,3.2,16.1s0,0.6,0.1,1.5
	c-0.3,6.1-0.1,12.4,0.4,18.2c0.6,7.6,1.8,14.1,3.3,17.6l1-0.6c-2.2-6.9-3.1-15.8-2.7-26.2c0.6-15.8,4.2-35,11-54.9
	c11.4-30.1,27.2-54.2,41.6-65.7c-13.2,11.9-31,50.4-36.3,64.7c-6,16-10.2,31-12.8,45.3c4.4-13.5,18.6-19.2,18.6-19.2
	s7-8.6,15.1-20.9c-4.9,1.1-12.9,3-15.6,4.2c-4,1.7-5,2.2-5,2.2s12.8-7.8,23.9-11.4C145,62.2,161.5,28.3,144.8,13.4"/>
</svg>
