<?xml version="1.0" encoding="utf-8"?>
<!-- Generator: Adobe Illustrator 24.1.1, SVG Export Plug-In . SVG Version: 6.00 Build 0)  -->
<svg version="1.1" id="Layer_1" xmlns="http://www.w3.org/2000/svg" xmlns:xlink="http://www.w3.org/1999/xlink" x="0px" y="0px"
	 viewBox="0 0 627.4 699" style="enable-background:new 0 0 627.4 699;" xml:space="preserve">
<style type="text/css">
	.st0{fill:#430098;}
</style>
<g id="Page-1">
	<g id="main" transform="translate(-25 -23)">
		<g id="nav" transform="translate(25 23)">
			<path id="logo" class="st0" d="M564.4,0H62.9C28,0,0,28,0,62.9v573.2C0,671,28,699,62.9,699h501.5c35,0,62.9-28,62.9-62.9V62.9
				C627.4,28,599.4,0,564.4,0z M592.4,636.1c0,15.7-12.2,28-28,28H62.9c-15.7,0-28-12.2-28-28V62.9c0-15.7,12.2-28,28-28h501.5
				c15.7,0,28,12.2,28,28V636.1L592.4,636.1z M157.3,594.2l78.6-69.9l-78.6-69.9V594.2z M440.4,311.1c-14-14-40.2-31.5-83.9-31.5
				c-47.2,0-96.1,12.2-131.1,24.5V104.9h-68.2v302.3l48.9-22.7c0,0,80.4-36.7,150.3-36.7c35,0,43.7,19.2,43.7,36.7v209.7h69.9V384.5
				C470.1,379.2,470.1,340.8,440.4,311.1z M347.8,218.4h69.9c31.5-36.7,47.2-73.4,52.4-113.6h-69.9
				C393.2,145,375.7,181.7,347.8,218.4z"/>
		</g>
	</g>
</g>
</svg>
