<?xml version="1.0" encoding="utf-8"?>
<!-- Generator: Adobe Illustrator 24.1.1, SVG Export Plug-In . SVG Version: 6.00 Build 0)  -->
<svg version="1.1" id="Capa_1" xmlns="http://www.w3.org/2000/svg" xmlns:xlink="http://www.w3.org/1999/xlink" x="0px" y="0px"
	 viewBox="0 0 30.7 37.3" style="enable-background:new 0 0 30.7 37.3;" xml:space="preserve">
<style type="text/css">
	.st0{fill:#073042;}
	.st1{fill:#4285F4;}
	.st2{fill:#3870B2;}
	.st3{fill:#FFFFFF;}
	.st4{fill:#3DDC84;}
</style>
<path class="st0" d="M11.5,4.7H3.1C1.4,4.7,0,6.1,0,7.8c0,1.7,1.3,3,2.9,3.1c0,0,0.1,0,0.1,0h8.6L11.5,4.7z"/>
<path class="st1" d="M30.7,32.3H3.1c-1.7,0-3.1-1.4-3.1-3.1V7.8c0,1.7,1.4,3.1,3.1,3.1c0.1,0,0.1,0,0.2,0h22.9c0,0,4.5-0.4,4.5,3
	V32.3z"/>
<path d="M16.1,17.4c-0.9,0-1.7,0.8-1.7,1.7s0.8,1.7,1.7,1.7c0.2,0,0.5,0,0.7-0.1c0.9-0.3,1.3-1.3,1-2.2
	C17.5,17.8,16.8,17.4,16.1,17.4z"/>
<path class="st2" d="M17.8,21.3c1.2-0.9,1.5-2.7,0.5-3.9c-0.5-0.7-1.3-1.1-2.1-1.1h0.1c0.2,0,0.3,0,0.5,0v-1.7
	c0-0.2-0.1-0.4-0.3-0.5c-0.2-0.1-0.4-0.1-0.6,0c-0.2,0.1-0.3,0.3-0.3,0.5v1.7c-1.5,0.2-2.6,1.7-2.3,3.2c0.1,0.7,0.5,1.4,1.1,1.8
	L9.4,32.2h3.3l2.3-5c0.2-0.4,0.6-0.7,1.1-0.7c0.5,0,0.9,0.3,1.1,0.7l2.4,5h3.4L17.8,21.3z M16.1,20.8c-0.9,0-1.7-0.8-1.7-1.7
	c0-0.4,0.2-0.9,0.5-1.2c0.7-0.7,1.7-0.7,2.4,0c0.3,0.3,0.5,0.8,0.5,1.2C17.8,20,17.1,20.8,16.1,20.8L16.1,20.8z"/>
<path class="st3" d="M9.7,6.2h11.8v2.2H9.7V6.2z"/>
<path class="st0" d="M15.2,17.4c0.9,0,1.7,0.8,1.7,1.7s-0.8,1.7-1.7,1.7c-0.9,0-1.7-0.8-1.7-1.7c0-0.4,0.2-0.9,0.5-1.2
	C14.3,17.6,14.7,17.4,15.2,17.4z M15.9,16.4v-1.8c0-0.2-0.1-0.4-0.3-0.5c-0.2-0.1-0.4-0.1-0.6,0c-0.2,0.1-0.3,0.3-0.3,0.5v1.7
	c-1.5,0.2-2.6,1.7-2.3,3.2c0.1,0.7,0.5,1.4,1.1,1.8L7.2,35.1c-0.2,0.5-0.2,1.1,0.1,1.5c0.3,0.4,0.8,0.7,1.4,0.7
	c0.5-0.1,1-0.4,1.2-0.9l4.3-9.1c0.2-0.4,0.6-0.7,1.1-0.7c0.5,0,0.9,0.3,1.1,0.7l4.4,9.1c0.4,0.8,1.3,1.1,2,0.7
	c0.8-0.4,1.1-1.3,0.7-2l-6.6-13.7c0.8-0.7,1.2-1.7,1-2.8C17.7,17.5,16.9,16.7,15.9,16.4"/>
<path class="st4" d="M19.8,8.1c-0.4,0-0.8-0.3-0.8-0.8c0-0.2,0.1-0.4,0.2-0.6c0.3-0.3,0.8-0.3,1.1,0c0.1,0.2,0.2,0.4,0.2,0.6
	C20.6,7.8,20.2,8.1,19.8,8.1L19.8,8.1 M10.9,8.1c-0.4,0-0.8-0.3-0.8-0.8c0-0.2,0.1-0.4,0.2-0.6c0.3-0.3,0.8-0.4,1.1-0.1
	c0.3,0.3,0.4,0.8,0.1,1.1c0,0-0.1,0.1-0.1,0.1C11.3,8.1,11.1,8.1,10.9,8.1 M20.1,3.3l1.6-2.8c0.1-0.2,0-0.4-0.2-0.4
	c-0.1-0.1-0.3,0-0.4,0.1L19.5,3c-2.6-1.2-5.6-1.2-8.3,0L9.6,0.2C9.5,0.1,9.4,0,9.3,0C9.2,0,9.1,0.1,9,0.2C9,0.3,9,0.4,9,0.5l1.6,2.8
	C7.8,4.8,6,7.7,5.7,10.9H25C24.8,7.7,22.9,4.8,20.1,3.3"/>
<path class="st0" d="M27.9,16.8h-1.3c-0.1,0-0.2,0.1-0.2,0.2c0,0,0,0,0,0v20c0,0.1,0.1,0.2,0.2,0.2H28c1.5,0,2.8-1.2,2.8-2.8V14.1
	C30.7,15.6,29.5,16.8,27.9,16.8C27.9,16.8,27.9,16.8,27.9,16.8z"/>
</svg>
