<?xml version="1.0" standalone="no"?>
<!DOCTYPE svg PUBLIC "-//W3C//DTD SVG 20010904//EN"
 "http://www.w3.org/TR/2001/REC-SVG-20010904/DTD/svg10.dtd">
<svg version="1.0" xmlns="http://www.w3.org/2000/svg"
 width="700.000000pt" height="700.000000pt" viewBox="0 0 700.000000 700.000000"
 preserveAspectRatio="xMidYMid meet">
<metadata>
Created by potrace 1.11, written by Peter Selinger 2001-2013
</metadata>
<g transform="translate(0.000000,700.000000) scale(0.100000,-0.100000)"
fill="#000000" stroke="none">
<path d="M0 3500 l0 -3500 3500 0 3500 0 0 3500 0 3500 -3500 0 -3500 0 0
-3500z m6985 0 l0 -3485 -3485 0 -3485 0 -3 3475 c-1 1911 0 3481 3 3488 3 10
706 12 3487 10 l3483 -3 0 -3485z"/>
<path d="M5983 5419 c-81 -15 -158 -60 -279 -164 l-46 -39 -52 27 c-126 66
-227 89 -386 89 -314 0 -524 -129 -663 -407 -94 -189 -135 -435 -115 -703 20
-271 106 -485 260 -648 l71 -75 -175 -442 c-191 -480 -199 -501 -200 -548 -2
-61 0 -61 372 -53 359 7 498 -1 640 -37 205 -53 301 -144 301 -285 0 -266
-356 -434 -686 -324 -92 31 -91 30 -71 84 24 64 23 146 -4 202 -81 166 -360
188 -475 37 -45 -58 -58 -109 -53 -203 9 -203 185 -352 479 -406 120 -22 412
-25 519 -5 332 60 569 214 676 436 54 113 69 183 69 330 0 148 -12 207 -62
315 -75 159 -253 288 -474 344 -153 39 -228 47 -506 53 -145 3 -263 6 -263 7
0 16 159 381 166 379 178 -29 357 -22 478 18 326 109 526 480 526 974 0 237
-70 476 -192 653 l-29 42 35 15 c48 20 57 19 144 -16 132 -54 236 -41 283 34
16 26 19 46 17 109 -3 67 -7 81 -33 115 -56 70 -175 111 -272 92z m-679 -363
c97 -40 130 -154 148 -512 18 -365 -8 -708 -62 -814 -35 -67 -87 -100 -161
-100 -174 0 -230 220 -209 820 13 354 39 499 103 569 45 48 118 64 181 37z"/>
<path d="M1401 5329 c-215 -21 -416 -129 -517 -276 -54 -78 -65 -115 -71 -229
-7 -117 12 -179 74 -245 110 -118 316 -131 428 -28 89 82 108 189 60 341 -26
83 -26 89 -11 113 21 31 73 41 152 28 110 -19 172 -77 209 -194 14 -44 19
-106 22 -326 l5 -272 -43 -11 c-346 -91 -631 -257 -794 -462 -166 -210 -244
-509 -206 -792 26 -191 88 -323 211 -446 84 -84 154 -123 258 -146 85 -17 131
-17 210 1 123 29 228 94 366 226 l94 89 40 -72 c94 -170 237 -246 443 -236
114 6 173 31 201 88 23 45 25 206 4 235 -8 11 -43 31 -78 45 -57 23 -65 30
-88 75 l-25 50 -6 900 c-6 977 -4 942 -64 1100 -67 180 -215 324 -403 392
-130 48 -314 68 -471 52z m346 -1836 c-7 -472 -9 -496 -63 -578 -38 -60 -84
-87 -142 -87 -97 0 -161 57 -198 177 -21 68 -30 311 -15 401 29 172 91 296
197 394 57 53 183 129 213 130 12 0 13 -65 8 -437z"/>
<path d="M3373 5150 c-120 -18 -258 -110 -332 -220 -125 -187 -98 -450 64
-613 101 -103 205 -147 350 -147 131 0 224 34 322 116 219 186 233 521 30 724
-113 113 -273 165 -434 140z"/>
<path d="M3411 3658 c-165 -19 -316 -143 -372 -307 -23 -64 -27 -197 -10 -274
34 -150 148 -266 312 -319 40 -12 69 -28 69 -35 0 -27 -58 -140 -115 -223 -75
-110 -169 -220 -294 -345 -56 -55 -101 -103 -101 -108 0 -4 41 -69 91 -143 82
-123 92 -134 107 -122 508 426 764 783 838 1167 18 94 20 269 4 336 -29 117
-134 268 -224 320 -81 47 -194 66 -305 53z"/>
</g>
</svg>
