<?xml version="1.0" encoding="utf-8"?>
<!-- Generator: Adobe Illustrator 24.1.1, SVG Export Plug-In . SVG Version: 6.00 Build 0)  -->
<svg version="1.1" id="Capa_1" xmlns="http://www.w3.org/2000/svg" xmlns:xlink="http://www.w3.org/1999/xlink" x="0px" y="0px"
	 viewBox="0 0 109 111.9" style="enable-background:new 0 0 109 111.9;" xml:space="preserve">
<style type="text/css">
	.st0{fill:url(#SVGID_1_);}
	.st1{fill:url(#SVGID_2_);fill-opacity:0.2;}
	.st2{fill:#3ECF8E;}
</style>
<linearGradient id="SVGID_1_" gradientUnits="userSpaceOnUse" x1="50.3158" y1="49.4273" x2="90.5055" y2="32.5718" gradientTransform="matrix(1 0 0 -1 0 112.8532)">
	<stop  offset="0" style="stop-color:#249361"/>
	<stop  offset="1" style="stop-color:#3ECF8E"/>
</linearGradient>
<path class="st0" d="M63.7,110.1c-2.9,3.6-8.7,1.6-8.7-3l-1-67.3h45.2c8.2,0,12.8,9.5,7.7,15.9L63.7,110.1z"/>
<linearGradient id="SVGID_2_" gradientUnits="userSpaceOnUse" x1="52.2416" y1="91.0446" x2="70.5702" y2="56.542" gradientTransform="matrix(1 0 0 -1 0 112.8532)">
	<stop  offset="0" style="stop-color:#000000"/>
	<stop  offset="1" style="stop-color:#000000;stop-opacity:0"/>
</linearGradient>
<path class="st1" d="M63.7,110.1c-2.9,3.6-8.7,1.6-8.7-3l-1-67.3h45.2c8.2,0,12.8,9.5,7.7,15.9L63.7,110.1z"/>
<path class="st2" d="M45.3,1.9c2.9-3.6,8.7-1.6,8.7,3l0.4,67.3H9.8c-8.2,0-12.8-9.5-7.7-15.9L45.3,1.9z"/>
</svg>
