<?xml version="1.0" encoding="utf-8"?>
<!-- Generator: Adobe Illustrator 22.0.0, SVG Export Plug-In . SVG Version: 6.00 Build 0)  -->
<svg version="1.1" id="Capa_1" xmlns="http://www.w3.org/2000/svg" xmlns:xlink="http://www.w3.org/1999/xlink" x="0px" y="0px"
	 viewBox="0 0 257.9 257.9" style="enable-background:new 0 0 257.9 257.9;" xml:space="preserve">
<style type="text/css">
	.st0{fill:#FFFFFF;stroke:#000000;stroke-miterlimit:10;}
	.st1{fill:#484848;}
	.st2{fill:#FF0043;}
</style>
<rect class="st0" width="257.9" height="257.9"/>
<g>
	<g>
		<path class="st1" d="M64.3,101.6V86c0-9.2-3.5-13.7-10.6-13.7c-2.6,0-3.8,0.8-3.8,2.3c0,0.6,0.2,1.5,0.6,2.6
			c0.9,2.2,1.4,4,1.4,5.5c0,2.8-1,5.2-2.8,7.2s-4.4,3-7.7,3c-3.5,0-6.4-1.1-8.6-3.3c-2.2-2.2-3.2-5-3.2-8.6c0-5.8,2.6-10.6,7.8-14.3
			c5.2-3.7,11.3-5.5,18.1-5.5c9.7,0,17.3,2.6,22.6,7.8c5.4,5.2,8.1,12.6,8.1,22.1v55.3c0,3,0.3,5.4,1,7c0.6,1.6,2,2.6,4.2,3
			c1.8,0.4,2.6,1.4,2.6,2.9v4.8c0,3.9-3,5.9-9.1,5.9c-8.2,0-13.7-3.9-16.9-11.7c-7.1,8.2-14,12.3-20.5,12.3
			c-6.3,0-11.5-2.6-15.6-7.8c-4.2-5.1-6.2-11.8-6.2-19.9C25.9,121.9,38.7,108.2,64.3,101.6z M64.3,113
			c-10.5,3.8-15.7,12.3-15.7,25.4c0,10.3,2.7,15.4,8.1,15.4c2.4,0,4.2-1.2,5.5-3.5c1.4-2.3,2-4.9,2-7.8L64.3,113L64.3,113z"/>
		<path class="st1" d="M208.6,65.7c5.1-5.2,9.7-7.8,13.7-7.8c2.6,0,4.9,0.8,6.8,2.2c1.9,1.5,2.9,3.5,2.9,5.9c0,4.4-2.2,6.6-6.6,6.6
			c-1.4,0-3-0.5-4.8-1.4c-1.4-0.7-2.4-1.1-3-1.1c-1.2,0-2.4,0.3-3.5,1c5.5,7.6,8.2,16.1,8.2,25.2c0,11.6-2.6,20.7-7.6,27.6
			c-5,6.8-12.1,10.2-21.1,10.2c-2.4,0-5.3-0.3-8.8-0.9l-5.7,14.1h10.2c25.4,0,38.1,8.8,38.1,26.3c0,9-3.4,16.1-10.1,21.3
			c-6.8,5.1-15.7,7.8-26.6,7.8c-8.7,0-15.6-1.5-20.6-4.6c-5-3-7.5-7.1-7.5-12.3c0-3,1-5.4,2.9-7.4s4.5-3,7.6-3
			c2.9,0,5.3,0.9,7.3,2.6c2,1.7,3,3.8,3,6.5c0,1.5-0.5,3.4-1.5,5.4c3.5,1.7,7.2,2.6,11,2.6c4.8,0,9-1.3,12.4-3.8
			c3.4-2.6,5.2-5.6,5.2-9.4c0-8-8.8-12-26.5-12c-3.5,0-7.8,0.1-12.9,0.3c-2.6,0.2-4.6,0.2-5.8,0.2c-2.4,0-3.5-0.7-3.5-2.1
			c0-1,0.6-3,1.7-5.9l12.3-30.8c-8.3-7.2-12.5-17.6-12.5-31.1c0-10.5,2.4-19.3,7.3-26.3c4.9-7,12.3-10.4,22.3-10.4
			C198.7,61.3,203.9,62.8,208.6,65.7z M192.7,124.2c3.1,0,5.3-1.8,6.5-5.2c1.2-3.5,1.8-10.1,1.8-20.1c0-11.3-0.6-18.8-1.8-22.4
			c-1.2-3.6-3.2-5.4-6-5.4c-3.7,0-6.1,2.6-7,8c-1,5.4-1.4,13.3-1.4,24.1c0,7.6,0.6,12.9,1.8,16.1S189.7,124.2,192.7,124.2z"/>
		<g>
			<path class="st2" d="M145.7,86.1c0,5-1.8,9.4-5.4,13s-8,5.4-13,5.4s-9.4-1.8-12.9-5.4s-5.4-8-5.4-13s1.8-9.4,5.4-12.9
				s7.9-5.4,12.9-5.4c5.1,0,9.5,1.8,13.1,5.4C143.9,76.7,145.7,81.1,145.7,86.1z"/>
		</g>
		<g>
			<path class="st2" d="M125.8,157.2c-9.9-2.4-14.8-8.2-14.8-17.3c0-4.9,1.7-9,5-12.2s7.4-4.9,12.1-4.9c5.4,0,9.8,1.9,12.9,5.8
				c3.2,3.8,4.8,8.2,4.8,13.2c0,16.8-10.8,33.8-32.3,51.1l-6.9-10.4C117.3,172.3,123.7,164,125.8,157.2z"/>
		</g>
	</g>
</g>
</svg>
