<?xml version="1.0" encoding="utf-8"?>
<!-- Generator: Adobe Illustrator 22.1.0, SVG Export Plug-In . SVG Version: 6.00 Build 0)  -->
<svg version="1.1" id="Capa_1" xmlns="http://www.w3.org/2000/svg" xmlns:xlink="http://www.w3.org/1999/xlink" x="0px" y="0px"
	 viewBox="0 0 998.6 181.1" style="enable-background:new 0 0 998.6 181.1;" xml:space="preserve">
<style type="text/css">
	.st0{fill:#FF0043;}
	.st1{fill:#9B9B9B;}
	.st2{fill:#484848;}
</style>
<g>
	<rect x="315" y="1.5" class="st0" width="9.7" height="175"/>
	<g>
		<path class="st1" d="M381.5,100.7h2.4c0.7,0,1,0.2,1,0.7l5.8,37.2c0,0.5,0,0.7,0.2,1.2s0,1,0,1.5c0.2-0.5,0.2-1,0.5-1.5
			c0.2-0.5,0.2-0.7,0.5-1.2l16-37.2c0-0.2,0.2-0.5,0.5-0.5s0.5-0.2,0.7-0.2h0.7c0.5,0,1,0.2,1,0.7l7,37.2c0,0.5,0,0.7,0.2,1.2
			c0,0.5,0,1,0.2,1.2c0.2-0.5,0.2-1,0.5-1.2c0.2-0.5,0.2-0.7,0.5-1.2l15.1-37.2c0-0.2,0.2-0.5,0.5-0.5s0.5-0.2,0.7-0.2h2.4
			l-18.5,44.7h-2.9l-7.3-38.9c0-0.2,0-0.5,0-0.7s0-0.5,0-1c0,0.2-0.2,0.5-0.2,1c0,0.2-0.2,0.5-0.2,0.7l-16.8,38.9h-2.9L381.5,100.7z
			"/>
		<path class="st1" d="M458.6,120.1c0,1,0,1.7-0.2,2.4s-0.7,1.5-1.2,2.2c-0.5,0.7-1.5,1.5-2.4,1.9c-1,0.7-2.2,1.2-3.9,1.7
			s-3.4,1-5.6,1.5s-4.9,0.7-7.8,1c0,0.5,0,1,0,1.2c0,0.5,0,1,0,1.2c0,3.2,0.7,5.6,2.2,7.3s3.6,2.7,6.3,2.7c1.2,0,2.2,0,2.9-0.2
			c1-0.2,1.7-0.5,2.4-1c0.7-0.5,1.2-0.7,1.9-1.2c0.5-0.5,1-0.7,1.5-1.2s0.7-0.7,1-1s0.5-0.2,0.7-0.2c0.2,0,0.5,0,0.7,0.2l0.7,0.7
			c-1,1.2-1.9,1.9-2.9,2.9c-1,0.7-1.9,1.5-2.9,1.9s-1.9,1-3.2,1.2c-1,0.2-2.2,0.2-3.4,0.2c-1.7,0-3.4-0.2-4.6-1
			c-1.5-0.5-2.4-1.5-3.4-2.4c-1-1-1.7-2.4-2.2-3.9c-0.5-1.5-0.7-3.2-0.7-5.1c0-1.5,0.2-3.2,0.5-4.9c0.2-1.7,0.7-3.2,1.5-4.6
			c0.7-1.5,1.5-2.9,2.2-4.1c1-1.2,1.9-2.4,3.2-3.4c1.2-1,2.4-1.7,3.9-2.2s2.9-0.7,4.6-0.7c1.5,0,2.9,0.2,3.9,0.7s1.9,1,2.7,1.7
			c0.7,0.7,1.2,1.5,1.5,2.2S458.6,119.4,458.6,120.1z M450,115.7c-1.7,0-3.2,0.2-4.6,1c-1.5,0.7-2.7,1.7-3.6,2.9s-1.9,2.7-2.7,4.1
			c-0.7,1.5-1.2,3.2-1.5,4.9c2.7-0.2,4.9-0.7,6.8-1c1.9-0.5,3.6-0.7,4.9-1.2c1.2-0.5,2.4-1,3.2-1.5c0.7-0.5,1.5-1,1.9-1.5
			c0.5-0.5,0.7-1,1-1.7c0.2-0.5,0.2-1.2,0.2-1.7c0-0.5,0-1-0.2-1.5c-0.2-0.5-0.5-1-1-1.5c-0.5-0.5-1-0.7-1.7-1
			C452.2,116,451.3,115.7,450,115.7z"/>
		<path class="st1" d="M463.7,145.4l5.6-45.9h2.9l-3.2,25c0.7-1.7,1.7-3.2,2.7-4.6s2.2-2.4,3.2-3.4c1.2-1,2.2-1.7,3.4-2.2
			c1.2-0.5,2.4-0.7,3.6-0.7c1.5,0,2.7,0.2,3.6,0.7c1,0.5,1.9,1.2,2.7,2.2c0.7,1,1.2,2.2,1.7,3.4c0.2,1.5,0.5,2.9,0.5,4.6
			s-0.2,3.2-0.5,4.9c-0.2,1.7-0.7,3.4-1.5,4.9c-0.7,1.5-1.5,3.2-2.2,4.4c-1,1.5-1.9,2.7-3.2,3.6c-1.2,1-2.4,1.9-3.6,2.4
			c-1.5,0.5-2.9,1-4.4,1c-1.7,0-3.4-0.5-4.9-1.2c-1.5-0.7-2.7-1.9-3.6-3.6l-0.5,3.4c0,0.2-0.2,0.7-0.2,0.7s-0.5,0.2-0.7,0.2h-1.5
			V145.4z M481.4,116c-1.2,0-2.4,0.2-3.6,1s-2.4,1.7-3.4,2.9c-1.2,1.2-2.2,2.7-3.2,4.4c-1,1.7-1.9,3.6-2.7,5.8l-1.2,9
			c0.5,0.7,1,1.5,1.5,2.2c0.5,0.5,1.2,1,1.9,1.5c0.7,0.2,1.5,0.7,1.9,0.7c0.7,0.2,1.5,0.2,2.2,0.2c1.2,0,2.7-0.2,3.6-0.7
			c1.2-0.5,2.2-1.2,3.2-2.2c1-1,1.7-1.9,2.4-3.2c0.7-1.2,1.2-2.4,1.9-3.9c0.5-1.5,1-2.7,1.2-4.1c0.2-1.5,0.5-2.9,0.5-4.1
			c0-2.9-0.5-5.1-1.7-6.6C485,116.7,483.3,116,481.4,116z"/>
		<path class="st1" d="M527.6,100.2c1.2,0,2.4,0.2,3.6,0.7c1.2,0.5,1.9,1,2.9,1.9c0.7,0.7,1.5,1.7,1.7,2.9s0.7,2.2,0.7,3.6l-1.7,0.2
			c0,0,0,0-0.2,0s0,0-0.2,0c-0.5,0-0.7-0.2-0.7-0.7c0-0.7-0.2-1.5-0.5-2.2c-0.2-0.7-0.7-1.5-1.2-1.9c-0.5-0.5-1.2-1.2-1.9-1.5
			c-0.7-0.5-1.7-0.5-2.9-0.5c-1.2,0-2.4,0.2-3.4,0.7c-1,0.5-1.9,1.2-2.7,1.9c-0.7,0.7-1.5,1.7-1.7,2.9c-0.5,1.2-0.7,2.4-0.7,3.6
			c0,1.5,0.2,2.9,1,4.4c0.7,1.5,1.7,2.9,2.9,4.6l11.2,13.6c1-1.5,1.9-3.2,2.7-4.6c0.7-1.7,1.2-3.2,1.5-4.6c0-0.2,0.2-0.5,0.2-0.5
			c0.2-0.2,0.2-0.2,0.5-0.2h1.9c-0.2,1.9-1,4.1-1.7,6.1c-1,2.2-1.9,4.1-3.4,6.1l7.5,9.2h-2.4c-0.5,0-1,0-1.2-0.2
			c-0.2,0-0.5-0.2-1-0.7l-4.9-6.1c-1,1-1.9,1.9-3.2,2.9c-1.2,1-2.4,1.7-3.6,2.4c-1.2,0.7-2.7,1.2-4.1,1.5c-1.5,0.5-2.9,0.5-4.4,0.5
			c-1.5,0-2.9-0.2-4.1-0.7c-1.2-0.5-2.4-1.2-3.4-1.9c-1-1-1.7-1.9-2.2-3.4c-0.5-1.2-1-2.7-1-4.4s0.2-3.4,1-4.9
			c0.7-1.5,1.5-2.9,2.4-4.1s2.2-2.4,3.6-3.4c1.5-1,2.9-1.7,4.6-2.4c-1-1.5-1.7-2.9-2.2-4.4c-0.5-1.5-0.7-2.9-0.7-4.4
			c0-1.7,0.2-3.2,1-4.6c0.7-1.5,1.5-2.7,2.4-3.6s2.2-1.9,3.6-2.4C524.2,100.4,525.9,100.2,527.6,100.2z M510.3,135.2
			c0,1.5,0.2,2.7,0.7,3.6c0.5,1,1.2,1.9,1.9,2.7c0.7,0.7,1.7,1.2,2.7,1.7c1,0.2,1.9,0.5,3.2,0.5c1.2,0,2.7-0.2,3.9-0.5
			c1.2-0.2,2.4-0.7,3.4-1.5c1.2-0.7,2.2-1.2,3.2-2.2c1-0.7,1.9-1.7,2.7-2.7l-11.7-14.6c-1.5,0.7-2.9,1.5-4.1,2.2
			c-1.2,0.7-2.2,1.9-3.2,2.9c-1,1-1.5,2.2-1.9,3.6C510.6,132.2,510.3,133.7,510.3,135.2z"/>
		<path class="st1" d="M583.2,133.5c0,0.2,0.2,0.5,0.2,0.7c0.2-0.5,0.5-1,0.7-1.5l20.2-31.4c0.2-0.2,0.2-0.5,0.5-0.5s0.5,0,0.7,0
			h2.2l-5.6,44.7h-2.7l4.6-38.2c0-0.2,0-0.5,0.2-0.7c0-0.2,0-0.5,0.2-1l-19.9,31.4c-0.2,0.5-0.7,0.7-1.2,0.7H583
			c-0.5,0-1-0.2-1.2-0.7l-12.6-31.4c0,0.7,0,1.2,0,1.7l-4.6,38.2h-2.7l5.6-44.7h2.2c0.2,0,0.5,0,0.7,0c0.2,0,0.2,0.2,0.5,0.5
			l12.9,31.4C583,133,583.2,133.2,583.2,133.5z"/>
		<path class="st1" d="M623.6,145.9c-1.7,0-3.2-0.2-4.6-1c-1.5-0.5-2.7-1.5-3.6-2.7c-1-1.2-1.7-2.4-2.2-4.1
			c-0.5-1.7-0.7-3.4-0.7-5.3c0-2.4,0.5-5.1,1.2-7.3c0.7-2.4,1.9-4.4,3.2-6.3c1.5-1.7,2.9-3.2,4.9-4.4c1.9-1,3.9-1.7,6.3-1.7
			c1.7,0,3.2,0.2,4.6,1c1.5,0.7,2.7,1.5,3.6,2.7c1,1.2,1.7,2.4,2.2,4.1s0.7,3.4,0.7,5.3c0,2.4-0.5,5.1-1.2,7.3
			c-0.7,2.4-1.9,4.4-3.2,6.3c-1.5,1.7-2.9,3.2-4.9,4.4C627.9,145.4,626,145.9,623.6,145.9z M623.8,143.4c1.9,0,3.4-0.5,5.1-1.5
			c1.5-1,2.9-2.2,3.9-3.9c1-1.7,1.9-3.4,2.4-5.3c0.5-1.9,1-4.1,1-6.3c0-3.4-0.7-6.1-2.2-7.8c-1.5-1.7-3.6-2.7-6.3-2.7
			c-1.2,0-2.4,0.2-3.4,0.7c-1,0.5-1.9,1-2.9,1.7s-1.7,1.7-2.4,2.7c-0.7,1-1.5,2.2-1.9,3.4c-0.5,1.2-1,2.7-1.2,4.1
			c-0.2,1.5-0.5,2.9-0.5,4.4c0,3.4,0.7,5.8,2.2,7.8C619.2,142.5,621.1,143.4,623.8,143.4z"/>
		<path class="st1" d="M644.5,145.4l5.6-45.9h2.9l-3.2,25c0.7-1.7,1.7-3.2,2.7-4.6c1-1.5,2.2-2.4,3.2-3.4c1.2-1,2.2-1.7,3.4-2.2
			c1.2-0.5,2.4-0.7,3.6-0.7c1.5,0,2.7,0.2,3.6,0.7c1,0.5,1.9,1.2,2.7,2.2c0.7,1,1.2,2.2,1.7,3.4c0.2,1.5,0.5,2.9,0.5,4.6
			s-0.2,3.2-0.5,4.9c-0.2,1.7-0.7,3.4-1.5,4.9c-0.7,1.5-1.5,3.2-2.2,4.4c-1,1.5-1.9,2.7-3.2,3.6c-1.2,1-2.4,1.9-3.6,2.4
			c-1.5,0.5-2.9,1-4.4,1c-1.7,0-3.4-0.5-4.9-1.2c-1.5-0.7-2.7-1.9-3.6-3.6l-0.5,3.4c0,0.2-0.2,0.7-0.2,0.7s-0.5,0.2-0.7,0.2h-1.5
			V145.4z M662.2,116c-1.2,0-2.4,0.2-3.6,1c-1.2,0.7-2.4,1.7-3.4,2.9c-1.2,1.2-2.2,2.7-3.2,4.4c-1,1.7-1.9,3.6-2.7,5.8l-1.2,9
			c0.5,0.7,1,1.5,1.5,2.2c0.5,0.5,1.2,1,1.9,1.5c0.7,0.2,1.5,0.7,1.9,0.7c0.7,0.2,1.5,0.2,2.2,0.2c1.2,0,2.7-0.2,3.6-0.7
			c1.2-0.5,2.2-1.2,3.2-2.2c1-1,1.7-1.9,2.4-3.2c0.7-1.2,1.2-2.4,1.9-3.9c0.5-1.5,1-2.7,1.2-4.1c0.2-1.5,0.5-2.9,0.5-4.1
			c0-2.9-0.5-5.1-1.7-6.6C665.9,116.7,664.4,116,662.2,116z"/>
		<path class="st1" d="M684.1,114l-3.9,31.4h-2.9l3.9-31.4C681.2,114,684.1,114,684.1,114z M686.5,103.1c0,0.5,0,0.7-0.2,1
			c-0.2,0.2-0.2,0.7-0.5,1s-0.5,0.5-1,0.5c-0.2,0.2-0.7,0.2-1,0.2c-0.2,0-0.7,0-1-0.2s-0.5-0.2-0.7-0.5c-0.2-0.2-0.5-0.5-0.5-1
			c0-0.5-0.2-0.7-0.2-1c0-0.5,0-0.7,0.2-1c0.2-0.2,0.2-0.7,0.5-1c0.2-0.2,0.5-0.5,0.7-0.7c0.2-0.2,0.7-0.2,1-0.2c0.2,0,0.7,0,1,0.2
			s0.7,0.2,1,0.5s0.5,0.5,0.5,1C686.3,102.4,686.5,102.8,686.5,103.1z"/>
		<path class="st1" d="M691.6,145.4l5.6-45.9h2.9l-5.6,45.9C694.5,145.4,691.6,145.4,691.6,145.4z"/>
		<path class="st1" d="M728.6,120.1c0,1,0,1.7-0.2,2.4s-0.7,1.5-1.2,2.2c-0.5,0.7-1.5,1.5-2.4,1.9c-1,0.7-2.2,1.2-3.9,1.7
			c-1.7,0.5-3.4,1-5.6,1.5s-4.9,0.7-7.8,1c0,0.5,0,1,0,1.2c0,0.2,0,1,0,1.2c0,3.2,0.7,5.6,2.2,7.3c1.5,1.7,3.6,2.7,6.3,2.7
			c1.2,0,2.2,0,2.9-0.2c0.7-0.2,1.7-0.5,2.4-1c0.7-0.5,1.2-0.7,1.9-1.2c0.5-0.5,1-0.7,1.5-1.2s0.7-0.7,1-1s0.5-0.2,0.7-0.2
			c0.2,0,0.5,0,0.7,0.2l0.7,0.7c-1,1.2-1.9,1.9-2.9,2.9c-1,0.7-1.9,1.5-2.9,1.9c-1,0.5-1.9,1-3.2,1.2c-1,0.2-2.2,0.2-3.4,0.2
			c-1.7,0-3.4-0.2-4.6-1c-1.5-0.5-2.4-1.5-3.4-2.4c-1-1-1.7-2.4-2.2-3.9c-0.5-1.5-0.7-3.2-0.7-5.1c0-1.5,0.2-3.2,0.5-4.9
			c0.2-1.7,0.7-3.2,1.5-4.6c0.7-1.5,1.5-2.9,2.2-4.1c1-1.2,1.9-2.4,3.2-3.4c1.2-1,2.4-1.7,3.9-2.2c1.5-0.5,2.9-0.7,4.6-0.7
			c1.5,0,2.9,0.2,3.9,0.7c1,0.5,1.9,1,2.7,1.7s1.2,1.5,1.5,2.2S728.6,119.4,728.6,120.1z M720,115.7c-1.7,0-3.2,0.2-4.6,1
			c-1.5,0.7-2.7,1.7-3.6,2.9c-1,1.2-1.9,2.7-2.7,4.1c-0.7,1.5-1.2,3.2-1.5,4.9c2.7-0.2,4.9-0.7,6.8-1c1.9-0.5,3.6-0.7,4.9-1.2
			c1.2-0.5,2.4-1,3.2-1.5s1.5-1,1.9-1.5c0.5-0.5,0.7-1,1-1.7c0.2-0.5,0.2-1.2,0.2-1.7c0-0.5,0-1-0.2-1.5c-0.2-0.5-0.5-1-1-1.5
			c-0.5-0.5-1-0.7-1.7-1C722,116,721,115.7,720,115.7z"/>
		<path class="st1" d="M784.5,119.6c0,2.7-0.2,5.1-0.7,7.3s-1.2,4.4-2.2,6.3c-1,1.9-2.2,3.6-3.4,5.1c-1.5,1.5-2.9,2.7-4.6,3.9
			c-1.7,1-3.4,1.7-5.3,2.4c-1.9,0.5-4.1,0.7-6.1,0.7H747l5.6-44.7h15.1c2.7,0,5.1,0.5,7,1.5c2.2,1,3.9,2.2,5.3,3.9
			c1.5,1.7,2.7,3.6,3.4,6.1C784,114.3,784.5,116.7,784.5,119.6z M781,119.9c0-2.4-0.2-4.9-1-6.8c-0.7-1.9-1.7-3.9-2.9-5.1
			c-1.2-1.5-2.7-2.4-4.4-3.2s-3.6-1.2-5.8-1.2H755l-4.9,39.6h11.9c2.7,0,5.3-0.5,7.8-1.5c2.4-1,4.4-2.7,6.1-4.6
			c1.7-1.9,2.9-4.4,3.9-7.3C780.8,126.7,781,123.5,781,119.9z"/>
		<path class="st1" d="M813.1,120.1c0,1,0,1.7-0.2,2.4s-0.7,1.5-1.2,2.2c-0.5,0.7-1.5,1.5-2.4,1.9c-1,0.7-2.2,1.2-3.9,1.7
			c-1.7,0.5-3.4,1-5.6,1.5c-2.2,0.5-4.9,0.7-7.8,1c0,0.5,0,1,0,1.2c0,0.2,0,1,0,1.2c0,3.2,0.7,5.6,2.2,7.3c1.5,1.7,3.6,2.7,6.3,2.7
			c1.2,0,2.2,0,2.9-0.2c0.7-0.2,1.7-0.5,2.4-1c0.7-0.5,1.2-0.7,1.9-1.2c0.5-0.5,1-0.7,1.5-1.2s0.7-0.7,1-1c0.2-0.2,0.5-0.2,0.7-0.2
			c0.2,0,0.5,0,0.7,0.2l0.7,0.7c-1,1.2-1.9,1.9-2.9,2.9c-1,0.7-1.9,1.5-2.9,1.9c-1,0.5-1.9,1-3.2,1.2c-1,0.2-2.2,0.2-3.4,0.2
			c-1.7,0-3.4-0.2-4.6-1c-1.5-0.5-2.4-1.5-3.4-2.4c-1-1-1.7-2.4-2.2-3.9c-0.5-1.5-0.7-3.2-0.7-5.1c0-1.5,0.2-3.2,0.5-4.9
			c0.2-1.7,0.7-3.2,1.5-4.6c0.7-1.5,1.5-2.9,2.2-4.1c1-1.2,1.9-2.4,3.2-3.4c1.2-1,2.4-1.7,3.9-2.2c1.5-0.5,2.9-0.7,4.6-0.7
			c1.5,0,2.9,0.2,3.9,0.7s1.9,1,2.7,1.7c0.7,0.7,1.2,1.5,1.5,2.2S813.1,119.4,813.1,120.1z M804.6,115.7c-1.7,0-3.2,0.2-4.6,1
			c-1.5,0.7-2.7,1.7-3.6,2.9c-1,1.2-1.9,2.7-2.7,4.1c-0.7,1.5-1.2,3.2-1.5,4.9c2.7-0.2,4.9-0.7,6.8-1c1.9-0.5,3.6-0.7,4.9-1.2
			c1.2-0.5,2.4-1,3.2-1.5c0.7-0.5,1.5-1,1.9-1.5c0.5-0.5,0.7-1,1-1.7c0.2-0.5,0.2-1.2,0.2-1.7c0-0.5,0-1-0.2-1.5
			c-0.2-0.5-0.5-1-1-1.5c-0.5-0.5-1-0.7-1.7-1C806.6,116,805.8,115.7,804.6,115.7z"/>
		<path class="st1" d="M817.5,114h2.2c0.2,0,0.5,0,0.7,0.2c0.2,0.2,0.2,0.2,0.2,0.5l6.3,24.8c0,0.5,0.2,1,0.2,1.5c0,0.5,0,1,0.2,1.5
			c0.2-1,0.7-1.9,1-2.9l12.6-24.8c0-0.2,0.2-0.5,0.5-0.5c0.2-0.2,0.5-0.2,0.7-0.2h2.2l-16,31.4H826L817.5,114z"/>
		<path class="st1" d="M869.5,120.1c0,1,0,1.7-0.2,2.4s-0.7,1.5-1.2,2.2c-0.5,0.7-1.5,1.5-2.4,1.9c-1,0.7-2.2,1.2-3.9,1.7
			c-1.7,0.5-3.4,1-5.6,1.5s-4.9,0.7-7.8,1c0,0.5,0,1,0,1.2c0,0.2,0,1,0,1.2c0,3.2,0.7,5.6,2.2,7.3c1.5,1.7,3.6,2.7,6.3,2.7
			c1.2,0,2.2,0,2.9-0.2c0.7-0.2,1.7-0.5,2.4-1c0.7-0.5,1.2-0.7,1.9-1.2c0.5-0.5,1-0.7,1.5-1.2c0.5-0.5,0.7-0.7,1-1
			c0.2-0.2,0.5-0.2,0.7-0.2c0.2,0,0.5,0,0.7,0.2l0.7,0.7c-1,1.2-1.9,1.9-2.9,2.9c-1,0.7-1.9,1.5-2.9,1.9s-1.9,1-3.2,1.2
			c-1,0.2-2.2,0.2-3.4,0.2c-1.7,0-3.4-0.2-4.6-1c-1.5-0.5-2.4-1.5-3.4-2.4c-1-1-1.7-2.4-2.2-3.9c-0.5-1.5-0.7-3.2-0.7-5.1
			c0-1.5,0.2-3.2,0.5-4.9c0.2-1.7,0.7-3.2,1.5-4.6c0.7-1.5,1.5-2.9,2.2-4.1c1-1.2,1.9-2.4,3.2-3.4c1.2-1,2.4-1.7,3.9-2.2
			c1.5-0.5,2.9-0.7,4.6-0.7c1.5,0,2.9,0.2,3.9,0.7c1,0.5,1.9,1,2.7,1.7c0.7,0.7,1.2,1.5,1.5,2.2
			C869.5,118.6,869.5,119.4,869.5,120.1z M861,115.7c-1.7,0-3.2,0.2-4.6,1c-1.5,0.7-2.7,1.7-3.6,2.9s-1.9,2.7-2.7,4.1
			c-0.7,1.5-1.2,3.2-1.5,4.9c2.7-0.2,4.9-0.7,6.8-1c1.9-0.5,3.6-0.7,4.9-1.2c1.2-0.5,2.4-1,3.2-1.5s1.5-1,1.9-1.5
			c0.5-0.5,0.7-1,1-1.7c0.2-0.5,0.2-1.2,0.2-1.7c0-0.5,0-1-0.2-1.5c-0.2-0.5-0.5-1-1-1.5s-1-0.7-1.7-1
			C862.9,116,862,115.7,861,115.7z"/>
		<path class="st1" d="M874.9,145.4l5.6-45.9h2.9l-5.6,45.9C877.8,145.4,874.9,145.4,874.9,145.4z"/>
		<path class="st1" d="M898.9,145.9c-1.7,0-3.2-0.2-4.6-1c-1.5-0.5-2.7-1.5-3.6-2.7c-1-1.2-1.7-2.4-2.2-4.1
			c-0.5-1.7-0.7-3.4-0.7-5.3c0-2.4,0.5-5.1,1.2-7.3c0.7-2.4,1.9-4.4,3.2-6.3c1.5-1.7,2.9-3.2,4.9-4.4c1.9-1,3.9-1.7,6.3-1.7
			c1.7,0,3.2,0.2,4.6,1s2.7,1.5,3.6,2.7c1,1.2,1.7,2.4,2.2,4.1s0.7,3.4,0.7,5.3c0,2.4-0.5,5.1-1.2,7.3c-0.7,2.4-1.9,4.4-3.2,6.3
			c-1.5,1.7-2.9,3.2-4.9,4.4C903.3,145.4,901.1,145.9,898.9,145.9z M899.2,143.4c1.9,0,3.4-0.5,5.1-1.5c1.5-1,2.9-2.2,3.9-3.9
			c1-1.7,1.9-3.4,2.4-5.3c0.5-1.9,1-4.1,1-6.3c0-3.4-0.7-6.1-2.2-7.8s-3.6-2.7-6.3-2.7c-1.2,0-2.4,0.2-3.4,0.7c-1,0.5-1.9,1-2.9,1.7
			s-1.7,1.7-2.4,2.7c-0.7,1-1.5,2.2-1.9,3.4c-0.5,1.2-1,2.7-1.2,4.1c-0.2,1.5-0.5,2.9-0.5,4.4c0,3.4,0.7,5.8,2.2,7.8
			C894.3,142.5,896.5,143.4,899.2,143.4z"/>
		<path class="st1" d="M918.1,156.5l5.1-42.8h1.5c0.7,0,1.2,0.5,1.2,1.2l-1,10c0.7-1.7,1.7-3.2,2.7-4.6c1-1.5,2.2-2.7,3.2-3.6
			c1-1,2.4-1.7,3.6-2.4c1.2-0.5,2.4-0.7,3.9-0.7s2.7,0.2,3.6,0.7c1,0.5,1.9,1.2,2.7,2.2c0.7,1,1.2,2.2,1.5,3.4
			c0.2,1.5,0.5,2.9,0.5,4.6s-0.2,3.2-0.5,4.9c-0.2,1.7-0.7,3.4-1.5,4.9c-0.7,1.5-1.5,3.2-2.2,4.4c-1,1.5-1.9,2.7-3.2,3.6
			c-1.2,1-2.4,1.9-3.6,2.4c-1.5,0.5-2.9,1-4.4,1c-1.7,0-3.2-0.5-4.6-1.2s-2.7-1.9-3.4-3.4l-1.9,15.3h-3.2V156.5z M937.3,116
			c-1.2,0-2.4,0.2-3.6,1c-1.2,0.7-2.4,1.7-3.4,2.9c-1.2,1.2-2.2,2.7-3.2,4.4c-1,1.7-1.9,3.6-2.7,5.8l-1.2,9c1,1.7,1.9,2.9,3.4,3.4
			c1.5,0.7,2.7,1,4.1,1c1.2,0,2.7-0.2,3.6-0.7c1.2-0.5,2.2-1.2,3.2-2.2c1-1,1.7-1.9,2.4-3.2c0.7-1.2,1.5-2.4,1.9-3.9
			c0.5-1.5,1-2.7,1.2-4.1c0.2-1.5,0.5-2.9,0.5-4.1c0-2.9-0.5-5.1-1.7-6.6C941,116.7,939.3,116,937.3,116z"/>
		<path class="st1" d="M975,120.1c0,1,0,1.7-0.2,2.4c-0.2,0.7-0.7,1.5-1.2,2.2c-0.5,0.7-1.5,1.5-2.4,1.9c-1,0.7-2.2,1.2-3.9,1.7
			c-1.7,0.5-3.4,1-5.6,1.5s-4.9,0.7-7.8,1c0,0.5,0,1,0,1.2c0,0.2,0,1,0,1.2c0,3.2,0.7,5.6,2.2,7.3s3.6,2.7,6.3,2.7
			c1.2,0,2.2,0,2.9-0.2c0.7-0.2,1.7-0.5,2.4-1c0.7-0.5,1.2-0.7,1.9-1.2c0.5-0.5,1-0.7,1.5-1.2c0.5-0.5,0.7-0.7,1-1
			c0.2-0.2,0.5-0.2,0.7-0.2c0.2,0,0.5,0,0.7,0.2l0.7,0.7c-1,1.2-1.9,1.9-2.9,2.9c-1,0.7-1.9,1.5-2.9,1.9c-1,0.5-1.9,1-3.2,1.2
			c-1,0.2-2.2,0.2-3.4,0.2c-1.7,0-3.4-0.2-4.6-1c-1.5-0.5-2.4-1.5-3.4-2.4c-1-1-1.7-2.4-2.2-3.9c-0.5-1.5-0.7-3.2-0.7-5.1
			c0-1.5,0.2-3.2,0.5-4.9c0.2-1.7,0.7-3.2,1.5-4.6c0.7-1.5,1.5-2.9,2.2-4.1c1-1.2,1.9-2.4,3.2-3.4c1.2-1,2.4-1.7,3.9-2.2
			c1.5-0.5,2.9-0.7,4.6-0.7c1.5,0,2.9,0.2,3.9,0.7c1,0.5,1.9,1,2.7,1.7s1.2,1.5,1.5,2.2S975,119.4,975,120.1z M966.5,115.7
			c-1.7,0-3.2,0.2-4.6,1c-1.5,0.7-2.7,1.7-3.6,2.9s-1.9,2.7-2.7,4.1c-0.7,1.5-1.2,3.2-1.5,4.9c2.7-0.2,4.9-0.7,6.8-1
			c1.9-0.5,3.6-0.7,4.9-1.2c1.2-0.5,2.4-1,3.2-1.5c0.7-0.5,1.5-1,1.9-1.5c0.5-0.5,0.7-1,1-1.7c0.2-0.5,0.2-1.2,0.2-1.7
			c0-0.5,0-1-0.2-1.5c-0.2-0.5-0.5-1-1-1.5s-1-0.7-1.7-1C968.4,116,967.4,115.7,966.5,115.7z"/>
		<path class="st1" d="M979.6,145.4l3.9-31.6h1.5c0.7,0,1.2,0.5,1.2,1.2l-1,9.2c1.5-3.4,3.2-6.1,4.9-8c1.9-1.9,3.9-2.9,5.8-2.9
			c1,0,1.7,0.2,2.7,0.5l-0.5,2.9c-1-0.2-1.9-0.5-2.7-0.5c-2.2,0-4.4,1.2-6.1,3.4c-1.7,2.2-3.4,5.3-4.6,9.7l-1.9,16H979.6z"/>
	</g>
	<g>
		<path class="st1" d="M428.4,71.7h-5.1c-0.5,0-1-0.2-1.5-0.5c-0.5-0.2-0.7-0.7-0.7-1.2l-4.6-11.7h-21.9L390,70
			c-0.2,0.5-0.5,0.7-0.7,1c-0.5,0.2-1,0.5-1.5,0.5h-5.1l19.4-48.8h6.8L428.4,71.7z M396.6,53.5h18.2l-7.5-19.9
			c-0.5-1.2-1-2.7-1.5-4.6c-0.2,1-0.5,1.7-0.7,2.7c-0.2,0.7-0.5,1.5-0.7,1.9L396.6,53.5z"/>
		<path class="st1" d="M433.8,71.7V37.2h3.6c1,0,1.5,0.5,1.7,1.2l0.5,3.6c1.5-1.7,3.2-2.9,5.1-4.1s3.9-1.5,6.3-1.5
			c1.9,0,3.6,0.2,5.1,1s2.7,1.5,3.6,2.7s1.7,2.4,2.2,4.1c0.5,1.7,0.7,3.4,0.7,5.3v21.9h-6.1V49.6c0-2.7-0.5-4.6-1.7-6.1
			c-1.2-1.5-2.9-2.2-5.3-2.2c-1.7,0-3.4,0.5-5.1,1.2c-1.5,1-2.9,1.9-4.4,3.4v25.3h-6.3V71.7z"/>
		<path class="st1" d="M481.9,72.2c-2.7,0-4.9-0.7-6.3-2.2s-2.2-3.6-2.2-6.6V42.3h-4.1c-0.2,0-0.7,0-1-0.2c-0.2-0.2-0.5-0.5-0.5-1
			v-2.4l5.6-0.7l1.5-10.7c0-0.2,0.2-0.7,0.5-0.7c0.2-0.2,0.5-0.2,1-0.2h3.2V38h10v4.4h-10V63c0,1.5,0.2,2.4,1,3.2
			c0.7,0.7,1.7,1,2.7,1c0.7,0,1.2,0,1.7-0.2c0.5-0.2,1-0.2,1.2-0.5s0.7-0.5,1-0.5c0.2-0.2,0.5-0.2,0.7-0.2c0.2,0,0.5,0.2,0.7,0.5
			l1.7,2.9c-1,1-2.2,1.7-3.9,2.2S483.6,72.2,481.9,72.2z"/>
		<path class="st1" d="M510.8,36.7c2.4,0,4.9,0.5,6.8,1.2s3.6,1.9,5.1,3.6c1.5,1.7,2.4,3.4,3.2,5.6s1.2,4.6,1.2,7.3
			s-0.5,5.1-1.2,7.3s-1.9,4.1-3.2,5.6c-1.5,1.5-3.2,2.7-5.1,3.6c-1.9,0.7-4.4,1.2-6.8,1.2c-2.4,0-4.9-0.5-6.8-1.2
			c-1.9-0.7-3.6-1.9-5.1-3.6c-1.5-1.5-2.4-3.4-3.4-5.6c-0.7-2.2-1.2-4.6-1.2-7.3s0.5-5.1,1.2-7.3s1.9-4.1,3.4-5.6
			c1.5-1.5,3.2-2.7,5.1-3.6C505.9,37,508.4,36.7,510.8,36.7z M510.8,67.4c3.4,0,5.8-1.2,7.5-3.4c1.7-2.2,2.4-5.3,2.4-9.5
			s-0.7-7.3-2.4-9.5c-1.7-2.2-4.1-3.4-7.5-3.4c-1.7,0-3.2,0.2-4.4,1c-1.2,0.5-2.4,1.5-3.2,2.4c-0.7,1.2-1.5,2.4-1.9,4.1
			s-0.7,3.4-0.7,5.6s0.2,3.9,0.7,5.6c0.5,1.7,1,2.9,1.9,4.1c0.7,1.2,1.9,1.9,3.2,2.4C507.6,67.1,509.1,67.4,510.8,67.4z"/>
		<path class="st1" d="M534.6,71.7V37.2h3.6c1,0,1.5,0.5,1.7,1.2l0.5,3.6c1.5-1.7,3.2-2.9,5.1-4.1c1.9-1.2,3.9-1.5,6.3-1.5
			c1.9,0,3.6,0.2,5.1,1c1.5,0.7,2.7,1.5,3.6,2.7c1,1.2,1.7,2.4,2.2,4.1c0.5,1.7,0.7,3.4,0.7,5.3v21.9h-6.1V49.6
			c0-2.7-0.5-4.6-1.7-6.1c-1.2-1.5-2.9-2.2-5.3-2.2c-1.7,0-3.4,0.5-5.1,1.2c-1.5,1-2.9,1.9-4.4,3.4v25.3h-6.3V71.7z"/>
		<path class="st1" d="M580.6,26.3c0,0.5,0,1.2-0.2,1.7s-0.5,1-1,1.5c-0.5,0.5-1,0.7-1.5,1c-0.5,0.2-1,0.2-1.7,0.2
			c-0.5,0-1.2,0-1.7-0.2s-1-0.5-1.5-1c-0.5-0.5-0.7-1-1-1.5c-0.2-0.5-0.2-1-0.2-1.7c0-0.5,0-1.2,0.2-1.7c0.2-0.5,0.5-1,1-1.5
			c0.5-0.5,1-0.7,1.5-1c0.5-0.2,1-0.2,1.7-0.2c0.5,0,1.2,0,1.7,0.2c0.5,0.2,1,0.5,1.5,1s0.7,1,1,1.5
			C580.6,25.3,580.6,25.8,580.6,26.3z M579.3,37.2v34.5h-6.1V37.2H579.3z"/>
		<path class="st1" d="M603.9,36.7c2.4,0,4.9,0.5,6.8,1.2c1.9,0.7,3.6,1.9,5.1,3.6c1.5,1.7,2.4,3.4,3.2,5.6c0.7,2.2,1.2,4.6,1.2,7.3
			s-0.5,5.1-1.2,7.3c-0.7,2.2-1.9,4.1-3.2,5.6c-1.5,1.5-3.2,2.7-5.1,3.6c-1.9,0.7-4.4,1.2-6.8,1.2s-4.9-0.5-6.8-1.2
			s-3.6-1.9-5.1-3.6c-1.5-1.5-2.4-3.4-3.4-5.6c-0.7-2.2-1.2-4.6-1.2-7.3s0.5-5.1,1.2-7.3s1.9-4.1,3.4-5.6c1.5-1.5,3.2-2.7,5.1-3.6
			C599,37,601.5,36.7,603.9,36.7z M603.9,67.4c3.4,0,5.8-1.2,7.5-3.4c1.7-2.2,2.4-5.3,2.4-9.5s-0.7-7.3-2.4-9.5
			c-1.7-2.2-4.1-3.4-7.5-3.4c-1.7,0-3.2,0.2-4.4,1c-1.2,0.5-2.4,1.5-3.2,2.4c-0.7,1.2-1.5,2.4-1.9,4.1s-0.7,3.4-0.7,5.6
			s0.2,3.9,0.7,5.6c0.5,1.7,1,2.9,1.9,4.1c0.7,1.2,1.9,1.9,3.2,2.4C600.7,67.1,602.2,67.4,603.9,67.4z"/>
		<path class="st1" d="M663.7,66.9c1.2,0,2.4,0,3.6-0.2c1.2-0.2,2.2-0.2,3.2-0.5c1-0.2,1.9-0.5,2.7-1c1-0.2,1.7-0.7,2.7-1.2V53.3
			h-7.5c-0.5,0-0.7-0.2-1-0.5s-0.5-0.5-0.5-1v-3.6h15.1v18.7c-1.2,1-2.4,1.7-3.9,2.4c-1.5,0.7-2.7,1.2-4.4,1.7
			c-1.5,0.5-3.2,0.7-4.9,1c-1.7,0.2-3.6,0.2-5.6,0.2c-3.6,0-6.8-0.5-9.7-1.7c-2.9-1.2-5.6-2.9-7.5-5.1c-1.9-2.2-3.9-4.9-5.1-7.8
			c-1.2-2.9-1.7-6.3-1.7-10.2c0-3.6,0.5-7,1.7-10.2c1.2-3.2,2.9-5.6,5.1-7.8s4.9-3.9,7.8-5.1c3.2-1.2,6.6-1.7,10.2-1.7
			c1.9,0,3.6,0.2,5.3,0.5c1.7,0.2,3.2,0.7,4.6,1.2c1.5,0.5,2.7,1.2,3.9,1.9c1.2,0.7,2.4,1.7,3.4,2.7l-1.9,2.9c-0.5,0.7-1,1-1.5,1
			c-0.2,0-0.7-0.2-1.2-0.5c-0.5-0.2-1.2-0.7-1.9-1.2c-0.7-0.5-1.5-1-2.7-1.2c-1-0.5-2.2-0.7-3.6-1c-1.5-0.2-2.9-0.5-4.9-0.5
			c-2.7,0-5.3,0.5-7.5,1.5c-2.2,1-4.1,2.2-5.6,3.9c-1.5,1.7-2.7,3.6-3.6,6.1c-0.7,2.4-1.2,5.1-1.2,8c0,3.2,0.5,5.8,1.2,8.3
			c0.7,2.4,2.2,4.4,3.6,6.1c1.7,1.7,3.4,2.9,5.6,3.9C658.6,66.4,661,66.9,663.7,66.9z"/>
		<path class="st1" d="M704.7,36.7c2.4,0,4.9,0.5,6.8,1.2s3.6,1.9,5.1,3.6c1.5,1.7,2.4,3.4,3.2,5.6s1.2,4.6,1.2,7.3
			s-0.5,5.1-1.2,7.3s-1.9,4.1-3.2,5.6c-1.5,1.5-3.2,2.7-5.1,3.6c-1.9,0.7-4.4,1.2-6.8,1.2s-4.9-0.5-6.8-1.2
			c-1.9-0.7-3.6-1.9-5.1-3.6c-1.5-1.5-2.4-3.4-3.4-5.6c-0.7-2.2-1.2-4.6-1.2-7.3s0.5-5.1,1.2-7.3c0.7-2.2,1.9-4.1,3.4-5.6
			c1.5-1.5,3.2-2.7,5.1-3.6C700.1,37,702.3,36.7,704.7,36.7z M704.7,67.4c3.4,0,5.8-1.2,7.5-3.4c1.7-2.2,2.4-5.3,2.4-9.5
			s-0.7-7.3-2.4-9.5c-1.7-2.2-4.1-3.4-7.5-3.4c-1.7,0-3.2,0.2-4.4,1c-1.2,0.5-2.4,1.5-3.2,2.4c-0.7,1.2-1.5,2.4-1.9,4.1
			c-0.5,1.7-0.7,3.4-0.7,5.6s0.2,3.9,0.7,5.6c0.5,1.7,1,2.9,1.9,4.1c0.7,1.2,1.9,1.9,3.2,2.4C701.6,67.1,703,67.4,704.7,67.4z"/>
		<path class="st1" d="M728.8,71.7V37.2h3.6c1,0,1.5,0.5,1.7,1.2l0.5,3.6c1.5-1.7,3.2-2.9,5.1-4.1s3.9-1.5,6.3-1.5
			c1.9,0,3.6,0.2,5.1,1c1.5,0.7,2.7,1.5,3.6,2.7c1,1.2,1.7,2.4,2.2,4.1c0.5,1.7,0.7,3.4,0.7,5.3v21.9h-6.1V49.6
			c0-2.7-0.5-4.6-1.7-6.1c-1.2-1.5-2.9-2.2-5.3-2.2c-1.7,0-3.4,0.5-5.1,1.2c-1.5,1-2.9,1.9-4.4,3.4v25.3h-6.3V71.7z"/>
		<path class="st1" d="M790.5,39.7c0,0.5,0,0.7-0.2,1.2s-0.2,0.7-0.7,1l-18.7,24.8h18.7v4.6H764v-2.4c0-0.2,0-0.7,0.2-1
			c0.2-0.5,0.2-0.7,0.7-1.2l18.7-25h-18.5v-4.9h25.5v2.9H790.5z"/>
		<path class="st1" d="M823.3,71.7h-2.7c-0.5,0-1,0-1.5-0.2c-0.2-0.2-0.5-0.5-0.7-1.2l-0.7-3.2c-1,0.7-1.7,1.5-2.7,2.2
			s-1.7,1.2-2.7,1.7c-1,0.5-1.9,0.7-3.2,1c-1.2,0.2-2.2,0.2-3.6,0.2c-1.5,0-2.7-0.2-3.6-0.5c-1-0.2-2.2-1-3.2-1.7
			c-1-0.7-1.5-1.7-1.9-2.9c-0.5-1.2-0.7-2.4-0.7-4.1c0-1.5,0.5-2.7,1.2-3.9c0.7-1.2,1.9-2.4,3.6-3.4c1.7-1,3.9-1.7,6.6-2.4
			s6.1-1,10-1v-2.7c0-2.7-0.5-4.6-1.7-6.1c-1.2-1.5-2.9-2.2-5.1-2.2c-1.5,0-2.7,0.2-3.6,0.5c-1,0.5-1.9,0.7-2.7,1.2
			c-0.7,0.5-1.5,1-1.9,1.2c-0.5,0.5-1,0.5-1.7,0.5c-0.5,0-0.7,0-1-0.2c-0.2-0.2-0.5-0.5-0.7-0.7l-1-1.9c1.9-1.9,3.9-3.2,6.1-4.1
			c2.2-1,4.6-1.5,7.3-1.5c1.9,0,3.6,0.2,5.1,1c1.5,0.7,2.7,1.5,3.9,2.7c1,1.2,1.7,2.4,2.4,4.1s0.7,3.4,0.7,5.3v22.4H823.3z
			 M807.5,67.8c1,0,1.9,0,2.9-0.2s1.7-0.5,2.4-1c0.7-0.5,1.5-1,2.2-1.5c0.7-0.5,1.5-1.2,2.2-1.9v-7c-2.7,0-5.1,0.2-7,0.5
			c-1.9,0.2-3.6,0.7-4.9,1.5c-1.2,0.7-2.2,1.2-2.7,1.9c-0.5,0.7-0.7,1.7-0.7,2.7s0.2,1.7,0.5,2.4s0.7,1.2,1.2,1.7
			c0.5,0.5,1,0.7,1.7,1C806.1,68.1,806.8,67.8,807.5,67.8z M820.9,22.4l-8,8.7c-0.2,0.2-0.7,0.5-1,0.7c-0.2,0.2-0.7,0.2-1.2,0.2
			h-3.6l5.1-8.3c0.2-0.5,0.7-1,1-1.2c0.5-0.2,1-0.2,1.7-0.2H820.9z"/>
		<path class="st1" d="M839.1,21.4v50.1h-6.1V21.4H839.1z"/>
		<path class="st1" d="M863.4,36.7c1.9,0,3.9,0.2,5.8,1c1.7,0.7,3.2,1.7,4.6,2.9c1.2,1.2,2.2,2.9,2.9,4.9c0.7,1.9,1,4.1,1,6.6
			c0,1,0,1.7-0.2,1.9c-0.2,0.2-0.5,0.5-1.2,0.5h-22.8c0,2.2,0.2,4.1,1,5.6c0.5,1.7,1.2,2.9,2.2,4.1c1,1.2,2.2,1.9,3.4,2.4
			c1.2,0.5,2.7,0.7,4.4,0.7c1.5,0,2.9-0.2,3.9-0.5c1.2-0.2,1.9-0.7,2.9-1.2c0.7-0.5,1.5-0.7,1.9-1.2c0.5-0.2,1-0.5,1.5-0.5
			c0.5,0,1,0.2,1.2,0.5l1.7,2.2c-0.7,1-1.7,1.7-2.7,2.4c-1,0.7-2.2,1.2-3.4,1.7c-1.2,0.5-2.4,0.7-3.6,1c-1.2,0.2-2.4,0.2-3.9,0.2
			c-2.4,0-4.6-0.5-6.6-1.2s-3.6-1.9-5.1-3.6c-1.5-1.5-2.7-3.4-3.4-5.8c-0.7-2.4-1.2-4.9-1.2-7.8c0-2.4,0.5-4.6,1.2-6.8
			c0.7-2.2,1.7-3.9,3.2-5.3s3.2-2.7,5.1-3.6C859.1,36.7,861,36.7,863.4,36.7z M863.7,41.1c-2.9,0-5.3,0.7-6.8,2.4
			c-1.5,1.7-2.7,4.1-3.2,7h18.7c0-1.5-0.2-2.7-0.5-3.9c-0.5-1.2-1-2.2-1.7-2.9c-0.7-1-1.7-1.5-2.7-1.9
			C866.4,41.4,865.1,41.1,863.7,41.1z"/>
		<path class="st1" d="M909.6,39.7c0,0.5,0,0.7-0.2,1.2s-0.2,0.7-0.7,1l-18.7,24.8h18.7v4.6h-26v-2.4c0-0.2,0-0.7,0.2-1
			c0.2-0.5,0.2-0.7,0.7-1.2l18.7-25h-18.5v-4.9h25.5v2.9H909.6z"/>
	</g>
	<g>
		<path class="st2" d="M48.1,54.6V35.1c0-11.5-4.4-17.2-13.3-17.2c-3.2,0-4.7,1-4.7,2.9c0,0.7,0.3,1.9,0.8,3.3
			c1.1,2.7,1.7,5,1.7,6.9c0,3.5-1.2,6.5-3.5,9s-5.5,3.7-9.6,3.7c-4.4,0-8-1.4-10.7-4.1c-2.7-2.7-4-6.3-4-10.8
			c0-7.3,3.3-13.3,9.8-17.9S28.7,4,37.3,4c12.1,0,21.6,3.3,28.3,9.8s10.1,15.8,10.1,27.7v69.2c0,3.8,0.4,6.7,1.2,8.7
			c0.8,2,2.5,3.3,5.2,3.8c2.2,0.5,3.3,1.7,3.3,3.6v6c0,4.9-3.8,7.4-11.4,7.4c-10.2,0-17.2-4.9-21.1-14.7
			c-8.9,10.3-17.5,15.4-25.7,15.4c-7.9,0-14.4-3.3-19.5-9.8C2.5,124.7,0,116.3,0,106.2C0,80,16,62.8,48.1,54.6z M48.1,68.8
			C35,73.6,28.5,84.2,28.5,100.6c0,12.9,3.4,19.3,10.1,19.3c3,0,5.3-1.5,6.9-4.4c1.7-2.9,2.5-6.1,2.5-9.7L48.1,68.8L48.1,68.8z"/>
		<path class="st2" d="M228.6,9.7C235,3.2,240.7,0,245.8,0c3.2,0,6.1,1,8.5,2.8c2.4,1.9,3.6,4.4,3.6,7.4c0,5.5-2.7,8.2-8.2,8.2
			c-1.8,0-3.8-0.6-6-1.8c-1.8-0.9-3-1.4-3.8-1.4c-1.5,0-3,0.4-4.4,1.3c6.9,9.5,10.3,20.1,10.3,31.5c0,14.5-3.2,25.9-9.5,34.5
			c-6.3,8.5-15.1,12.8-26.4,12.8c-3,0-6.6-0.4-11-1.1l-7.1,17.7h12.8c31.8,0,47.7,11,47.7,32.9c0,11.3-4.2,20.2-12.7,26.6
			c-8.5,6.4-19.6,9.7-33.3,9.7c-10.9,0-19.5-1.9-25.8-5.7s-9.4-8.9-9.4-15.4c0-3.7,1.2-6.8,3.6-9.2c2.4-2.5,5.6-3.7,9.5-3.7
			c3.6,0,6.6,1.1,9.1,3.2c2.5,2.1,3.7,4.8,3.7,8.1c0,1.9-0.6,4.2-1.9,6.7c4.4,2.1,9,3.2,13.8,3.2c6,0,11.2-1.6,15.5-4.7
			c4.3-3.2,6.5-7,6.5-11.7c0-10-11-15-33.1-15c-4.4,0-9.8,0.1-16.1,0.4c-3.2,0.2-5.7,0.3-7.2,0.3c-3,0-4.4-0.9-4.4-2.6
			c0-1.3,0.7-3.8,2.1-7.4l15.4-38.5c-10.4-9-15.6-22-15.6-38.9c0-13.2,3-24.2,9.1-32.9s15.4-13,27.9-13C216.2,4.1,222.8,6,228.6,9.7
			z M208.7,82.9c3.9,0,6.6-2.2,8.1-6.5c1.5-4.4,2.2-12.7,2.2-25.2c0-14.2-0.7-23.5-2.2-28s-4-6.7-7.5-6.7c-4.6,0-7.6,3.3-8.8,10
			s-1.8,16.7-1.8,30.2c0,9.5,0.7,16.2,2.2,20.2S205,82.9,208.7,82.9z"/>
		<g>
			<path class="st0" d="M149.9,35.2c0,6.3-2.3,11.8-6.8,16.3s-10,6.8-16.3,6.8s-11.7-2.3-16.2-6.8s-6.7-10-6.7-16.3
				s2.2-11.7,6.7-16.2s9.9-6.7,16.2-6.7c6.4,0,11.9,2.2,16.4,6.7C147.6,23.4,149.9,28.9,149.9,35.2z"/>
		</g>
		<g>
			<path class="st0" d="M125,124.1c-12.4-3-18.5-10.2-18.5-21.6c0-6.1,2.1-11.2,6.3-15.3c4.2-4.1,9.3-6.1,15.2-6.1
				c6.8,0,12.3,2.4,16.2,7.2c4,4.8,6,10.3,6,16.5c0,21-13.5,42.3-40.4,63.9l-8.6-13C114.4,143.1,122.4,132.6,125,124.1z"/>
		</g>
	</g>
</g>
</svg>
